HIERARCHY
ROOT Hips
{
	OFFSET 0.00000 0.00000 0.00000
	CHANNELS 6 Xposition Yposition Zposition Zrotation Yrotation Xrotation 
	JOINT LHipJoint
	{
		OFFSET 0 0 0
		CHANNELS 3 Zrotation Yrotation Xrotation
		JOINT LeftHip
		{
			OFFSET 1.75344 -1.53157 0.77399
			CHANNELS 3 Zrotation Yrotation Xrotation
			JOINT LeftKnee
			{
				OFFSET 2.25415 -6.19323 0.00000
				CHANNELS 3 Zrotation Yrotation Xrotation
				JOINT LeftAnkle
				{
					OFFSET 2.30342 -6.32861 0.00000
					CHANNELS 3 Zrotation Yrotation Xrotation
					JOINT LeftToe
					{
						OFFSET 0.10958 -0.30108 1.49206
						CHANNELS 3 Zrotation Yrotation Xrotation
						End Site
						{
							OFFSET 0.00000 -0.00000 0.77783
						}
					}
				}
			}
		}
	}
	JOINT RHipJoint
	{
		OFFSET 0 0 0
		CHANNELS 3 Zrotation Yrotation Xrotation
		JOINT RightHip
		{
			OFFSET -1.81912 -1.53156 0.77399
			CHANNELS 3 Zrotation Yrotation Xrotation
			JOINT RightKnee
			{
				OFFSET -2.22882 -6.12365 0.00000
				CHANNELS 3 Zrotation Yrotation Xrotation
				JOINT RightAnkle
				{
					OFFSET -2.21943 -6.09785 0.00000
					CHANNELS 3 Zrotation Yrotation Xrotation
					JOINT RightToe
					{
						OFFSET -0.18931 -0.52012 1.59379
						CHANNELS 3 Zrotation Yrotation Xrotation
						End Site
						{
							OFFSET -0.00000 -0.00000 0.84686
						}
					}
				}
			}
		}
	}
	JOINT lowerback
	{
		OFFSET 0 0 0
		CHANNELS 3 Zrotation Yrotation Xrotation
		JOINT Chest
		{
			OFFSET -0.00200 1.66634 -0.14248
			CHANNELS 3 Zrotation Yrotation Xrotation
			JOINT Chest2
			{
				OFFSET -0.00875 1.64542 0.09514
				CHANNELS 3 Zrotation Yrotation Xrotation
				JOINT lowerneck
				{
					OFFSET 0 0 0
					CHANNELS 3 Zrotation Yrotation Xrotation
					JOINT Neck
					{
						OFFSET 0.02257 1.59605 0.00839
						CHANNELS 3 Zrotation Yrotation Xrotation
						JOINT Head
						{
							OFFSET -0.10214 1.57530 -0.23335
							CHANNELS 3 Zrotation Yrotation Xrotation
							End Site
							{
								OFFSET -0.03588 1.60717 -0.08062
							}
						}
					}
				}
				JOINT LeftCollar
				{
					OFFSET 0 0 0
					CHANNELS 3 Zrotation Yrotation Xrotation
					JOINT LeftShoulder
					{
						OFFSET 2.54983 1.10186 0.40078
CHANNELS 3 Zrotation Xrotation Yrotation
						JOINT LeftElbow
						{
OFFSET 0 -4.288400 0.000000
CHANNELS 3 Zrotation Xrotation Yrotation
							JOINT LeftWrist
							{
OFFSET 0 -3.065520 -0.000000
CHANNELS 3 Zrotation Xrotation Yrotation
								JOINT lhand
								{
									OFFSET 0 0 0
CHANNELS 3 Zrotation Xrotation Yrotation
									JOINT LFingers
									{
OFFSET 0 -0.753040 0.000000
CHANNELS 3 Zrotation Xrotation Yrotation
										End Site
										{
OFFSET 0 -0.607120 0.000000
										}
									}
								}
								JOINT LThumb
								{
OFFSET 0 0.000000 0.000000
CHANNELS 3 Zrotation Xrotation Yrotation
									End Site
									{
OFFSET 0 -0.616390 0.616390
									}
								}
							}
						}
					}
				}
				JOINT RightCollar
				{
					OFFSET 0 0 0
					CHANNELS 3 Zrotation Yrotation Xrotation
					JOINT RightShoulder
					{
						OFFSET -2.60909 1.35448 0.21802
CHANNELS 3 Zrotation Xrotation Yrotation
						JOINT RightElbow
						{
OFFSET 0 -4.521720 -0.000000
CHANNELS 3 Zrotation Xrotation Yrotation
							JOINT RightWrist
							{
OFFSET 0 -2.891400 0.000000
CHANNELS 3 Zrotation Xrotation Yrotation
								JOINT rhand
								{
									OFFSET 0 0 0
CHANNELS 3 Zrotation Xrotation Yrotation
									JOINT RFingers
									{
OFFSET 0 -0.680540 0.000000
CHANNELS 3 Zrotation Xrotation Yrotation
										End Site
										{
OFFSET 0 -0.548670 0.000000
										}
									}
								}
								JOINT RThumb
								{
OFFSET 0 0.000000 0.000000
CHANNELS 3 Zrotation Xrotation Yrotation
									End Site
									{
OFFSET 0 -0.557050 0.557050
									}
								}
							}
						}
					}
				}
			}
		}
	}
}
MOTION
Frames: 10
Frame Time: 0.008333333333333333
8.575988 14.963549 -33.099753 176.866833 -47.036241 176.058997 0.000000 0.000000 0.000000 -36.390120 -8.915345 3.100956 2.908532 10.544399 30.759419 1.187289 3.701065 -22.232292 0.573948 -4.732763 -13.169483 0.000000 0.000000 0.000000 17.529922 23.297194 -12.071628 -8.794014 -16.668280 55.367242 -1.516550 8.387172 -22.044043 -1.738427 8.253809 -23.513652 3.101897 2.597472 1.042523 3.210027 3.508663 -6.566058 1.389213 1.515026 -7.463437 -0.807045 -4.356277 -0.666125 -11.856936 -5.621725 5.849057 -3.818572 -3.238824 1.647596 0.000000 0.000000 0.000000 66.355717 12.570973 47.897117 16.497541 -26.190119 3.863186 -7.026649 15.311958 14.929408 0.000000 0.000000 0.000000 -7.125000 0.000000 0.000000 -22.947155 15.609014 -17.399116 0.000000 0.000000 0.000000 -55.064637 1.774192 -26.462527 -15.980885 -25.492806 -3.638807 -17.632860 44.553513 59.626448 0.000000 0.000000 0.000000 7.125000 0.000000 0.000000 89.654330 -8.371722 17.445057
8.575857 14.963488 -33.263559 176.675930 -53.670456 176.443139 0.000000 0.000000 0.000000 -35.468139 -9.716642 2.626598 3.296271 11.159530 32.820251 1.177270 0.202493 -20.595237 1.327260 -7.268243 -20.524553 0.000000 0.000000 0.000000 17.702264 24.679972 -10.439556 -6.949226 -15.285499 48.675885 -1.680817 9.390338 -23.250584 -2.208735 9.284518 -26.692011 2.968040 3.336863 1.126387 2.430432 4.508617 -6.401234 0.570677 2.019907 -7.281072 -2.274258 -5.130527 -0.304741 -10.158296 -6.609518 6.290579 -2.977624 -3.706453 1.764033 0.000000 0.000000 0.000000 72.294914 8.773276 41.949103 16.047069 -25.584469 3.666267 -5.519808 17.931122 13.256649 0.000000 0.000000 0.000000 -7.125000 0.000000 0.000000 -22.217265 17.167237 -15.921124 0.000000 0.000000 0.000000 -54.911763 1.515777 -18.631186 -16.929599 -26.764424 -4.055919 -22.667942 45.609547 57.055977 0.000000 0.000000 0.000000 7.125000 0.000000 0.000000 87.239902 80.152039 -77.218205
8.578594 14.986579 -33.443022 175.811346 -60.911553 177.320820 0.000000 0.000000 0.000000 -34.723671 -9.698817 2.394920 3.590112 11.593815 34.309997 1.116733 -4.228756 -19.028106 0.354707 -3.628771 -10.059144 0.000000 0.000000 0.000000 17.722412 26.349571 -8.050502 -5.572596 -13.998892 43.237203 -1.870001 8.489875 -24.520169 -2.083113 9.033645 -25.903097 2.672141 4.160339 1.078273 1.369502 5.588953 -6.021667 -0.428922 2.577119 -6.754708 -2.566486 -5.530313 -1.220550 -8.893441 -6.975744 7.756636 -2.606036 -3.916216 2.448059 0.000000 0.000000 0.000000 76.409262 2.372571 43.517387 16.795688 -26.587492 3.995566 -7.328441 32.631898 15.738001 0.000000 0.000000 0.000000 -7.125000 0.000000 0.000000 -23.027311 14.857346 -17.887846 0.000000 0.000000 0.000000 -55.334971 2.932457 -9.152001 -17.233064 -27.164003 -4.193163 -31.045775 56.633510 56.734940 0.000000 0.000000 0.000000 7.125000 0.000000 0.000000 91.635548 -45.161173 56.971331
8.596871 15.039511 -33.625884 175.737913 -69.938497 178.017503 0.000000 0.000000 0.000000 -33.951147 -11.398637 2.121285 3.927966 12.063701 35.957840 0.968537 -4.915926 -17.602958 0.304259 -3.545594 -9.801670 0.000000 0.000000 0.000000 17.891121 26.673067 -6.076323 -4.506341 -12.804250 38.641846 -1.834633 9.757779 -24.309977 -1.346558 7.346584 -20.746232 3.218000 4.620411 1.435907 0.141393 6.209590 -6.287252 -2.079443 2.816165 -7.037144 -3.761007 -5.498470 -2.157104 -6.349253 -6.819059 10.203333 -1.702573 -3.870915 3.594846 0.000000 0.000000 0.000000 80.957197 -3.924551 34.503927 18.610850 -28.931885 4.841387 -10.977893 34.303491 14.359102 0.000000 0.000000 0.000000 -7.125000 0.000000 0.000000 -25.446597 16.073584 -19.451161 0.000000 0.000000 0.000000 -56.196002 5.771792 1.992116 -16.368019 -26.016870 -3.806151 -30.582791 67.362238 59.191486 0.000000 0.000000 0.000000 7.125000 0.000000 0.000000 104.129177 -81.956094 112.135871
8.612286 15.093486 -33.824975 178.601948 -80.094933 175.763012 0.000000 0.000000 0.000000 -32.271800 -13.405772 1.811911 4.415013 12.693130 38.230243 0.713519 -9.117722 -15.417013 0.937782 6.160457 17.252814 0.000000 0.000000 0.000000 19.149381 26.310572 -3.612407 -3.660017 -11.693668 34.656828 -1.782464 7.761146 -23.935260 -1.726044 8.269629 -23.536504 3.249651 4.940490 1.176782 -0.130686 6.634551 -6.169778 -2.372729 3.038428 -6.703585 -3.491970 -4.458101 -2.562894 -5.017835 -5.453646 11.190344 -1.303954 -3.146758 4.073759 0.000000 0.000000 0.000000 84.179411 -11.964898 24.543190 20.242788 -30.933620 5.655589 -8.425927 35.672593 13.551457 0.000000 0.000000 0.000000 -7.125000 0.000000 0.000000 -24.006020 16.870631 -17.639015 0.000000 0.000000 0.000000 -59.832323 9.269426 20.635454 -14.982373 -24.121465 -3.218706 -27.275586 68.025795 61.581207 0.000000 0.000000 0.000000 7.125000 0.000000 0.000000 107.699166 -80.035573 117.574073
8.624478 15.123846 -34.039004 155.779713 -91.646945 199.130766 0.000000 0.000000 0.000000 -30.885656 -14.512714 0.734724 4.876418 13.243071 40.285604 0.724122 -9.083051 -15.512407 0.688492 5.299981 14.767219 0.000000 0.000000 0.000000 20.176844 24.896249 -1.379944 -3.148174 -10.930950 32.047515 -1.811625 3.193501 -24.644994 -2.530832 9.893661 -28.633245 3.425595 5.429545 1.624782 -1.269086 7.274272 -6.468135 -3.747699 3.301476 -7.076671 -1.764778 -2.892727 -3.831109 -2.897322 -3.552055 13.520104 -0.789947 -2.070754 4.661531 0.000000 0.000000 0.000000 88.844441 -20.803114 13.086926 23.283831 -34.395774 7.298867 -5.992698 36.474509 13.050064 0.000000 0.000000 0.000000 -7.125000 0.000000 0.000000 -22.545696 17.357638 -16.096944 0.000000 0.000000 0.000000 -59.962672 14.895748 34.642316 -13.763544 -22.395462 -2.737471 -17.066662 64.812487 64.487107 0.000000 0.000000 0.000000 7.125000 0.000000 0.000000 103.057511 -76.600663 116.807156
8.633337 15.144418 -34.285894 173.844359 -103.613898 182.346770 0.000000 0.000000 0.000000 -28.594265 -15.092186 -1.961860 5.319055 13.734174 42.183218 0.785155 -9.074763 -16.090641 0.935084 6.091969 17.070943 0.000000 0.000000 0.000000 20.985579 22.305123 -0.555050 -2.788735 -10.344588 30.100309 -1.763499 -1.068982 -25.522801 -2.162107 9.194337 -26.406261 2.217911 5.390415 0.971377 -1.049806 7.167573 -6.401813 -2.786352 3.343469 -6.807388 -1.480945 -0.866747 -5.310846 -1.295368 -0.954671 14.657798 -0.222311 -0.686782 5.283562 0.000000 0.000000 0.000000 88.013415 -29.343472 7.049034 28.078180 -39.176156 10.177510 -0.159380 36.606635 12.768477 0.000000 0.000000 0.000000 -7.125000 0.000000 0.000000 -18.789336 17.573073 -12.960797 0.000000 0.000000 0.000000 -60.283480 19.323981 46.702155 -12.807607 -21.004590 -2.384001 -0.790945 50.731893 66.106058 0.000000 0.000000 0.000000 7.125000 0.000000 0.000000 94.988644 -72.359728 113.697380
8.602551 15.144998 -34.535352 174.734960 -116.014018 182.448200 0.000000 0.000000 0.000000 -26.625091 -16.122881 -4.302446 5.638743 14.068777 43.513912 1.009102 -8.096159 -17.992716 0.470324 4.385439 12.165530 0.000000 0.000000 0.000000 22.388877 18.139079 0.111762 -2.454106 -9.753464 28.182482 -1.760298 -5.419025 -27.519289 -1.177841 6.881696 -19.367973 1.757138 5.449105 0.570364 -1.290480 7.221879 -6.315787 -2.738940 3.407414 -6.505975 -0.482311 0.816465 -5.927331 0.034149 1.084310 14.374502 0.154767 0.472356 5.296631 0.000000 0.000000 0.000000 86.367580 -37.551849 1.376886 35.754802 -45.319574 15.355741 8.578948 31.816295 13.956116 0.000000 0.000000 0.000000 -7.125000 0.000000 0.000000 -12.858407 16.089760 -9.016562 0.000000 0.000000 0.000000 -57.718006 24.774165 54.961381 -12.135076 -20.006597 -2.148475 9.678623 40.723839 68.150454 0.000000 0.000000 0.000000 7.125000 0.000000 0.000000 96.439075 -69.804546 118.277196
8.554387 15.122241 -34.752062 174.726467 -128.040756 182.809927 0.000000 0.000000 0.000000 -24.711031 -16.712300 -6.307257 5.889078 14.319887 44.534723 1.341911 -5.874268 -20.755662 0.006635 -0.484167 -1.330503 0.000000 0.000000 0.000000 24.893836 15.569090 1.505030 -2.209722 -9.289762 26.706176 -1.831322 -10.509733 -31.180451 -0.277940 3.331894 -9.209396 2.186049 5.480783 0.418150 -1.259127 7.301989 -5.946916 -2.899180 3.453610 -5.973106 -0.506428 1.759583 -5.138444 0.562315 2.320372 12.559192 0.398219 1.130624 4.800054 0.000000 0.000000 0.000000 82.450850 -44.377533 -4.004871 46.798729 -51.585316 23.650183 18.379127 27.005969 17.582788 0.000000 0.000000 0.000000 -7.125000 0.000000 0.000000 -6.322755 11.589224 -4.935729 0.000000 0.000000 0.000000 -54.281684 29.660670 59.355643 -11.900067 -19.654574 -2.068605 14.177347 40.194355 67.162211 0.000000 0.000000 0.000000 7.125000 0.000000 0.000000 92.294414 -68.748426 115.322025
8.507405 15.097986 -34.995368 175.062272 -140.334058 183.295401 0.000000 0.000000 0.000000 -22.955632 -18.315196 -9.132336 6.185517 14.605644 45.721609 1.649217 -5.189390 -23.153615 0.294758 -3.443654 -9.521148 0.000000 0.000000 0.000000 27.186237 13.442130 1.361729 -2.056566 -8.982717 25.741357 -2.337744 -13.090979 -35.916024 -0.035346 -0.739550 2.035059 1.992116 5.010892 0.616811 -0.739743 6.714893 -6.088652 -2.269473 3.180234 -6.340531 -2.059117 1.866972 -4.202701 0.580961 2.614538 11.771997 0.701132 1.213231 4.603146 0.000000 0.000000 0.000000 76.551095 -48.741576 -10.752709 59.290367 -56.086809 33.758237 27.878432 19.001126 24.940489 0.000000 0.000000 0.000000 -7.125000 0.000000 0.000000 -1.027412 2.218877 -0.966706 0.000000 0.000000 0.000000 -50.929415 32.567121 62.644562 -11.616554 -19.224078 -1.976440 21.294387 34.045012 66.729497 0.000000 0.000000 0.000000 7.125000 0.000000 0.000000 89.775159 -67.044948 114.806359
